<svg class="svg-icon" style="width: 1em;height: 1em;vertical-align: middle;fill: #19017a;overflow: hidden;" viewBox="0 0 1024 1024" version="1.1"
    xmlns="http://www.w3.org/2000/svg">
    <path d="M399.36 136.544H128a112 112 0 0 0-112 112v629.568a112 112 0 0 0 112 112h768a112 112 0 0 0 112-112V355.2l-0.16-6.176A112 112 0 0 0 896 243.2H529.44l-70.048-79.52a80 80 0 0 0-60.032-27.136z m-271.36 32h271.36c13.76 0 26.88 5.92 36.032 16.288L515.008 275.2H896a80 80 0 0 1 80 80v522.88a80 80 0 0 1-80 80H128a80 80 0 0 1-80-80V248.576a80 80 0 0 1 80-80z" fill="#19017a" />
    <path d="M202.656 32h592a64 64 0 0 1 64 64v304.096c0 11.456-5.312 22.24-14.4 29.216l-10.144 7.808c-2.944 2.24-6.08 4.224-9.312 5.952-36.544 19.072-72.288 32.096-107.264 39.008-36.576 7.232-98.24 12.96-185.088 17.12H138.656V96a64 64 0 0 1 64-64z" fill="#8b99f7" />
    <path d="M794.656 16h-592a80 80 0 0 0-80 80v419.2H532.48l14.304-0.672c80.48-4.16 138.304-9.696 173.888-16.768 36.544-7.2 73.728-20.736 111.552-40.512 4.096-2.144 8-4.64 11.648-7.456l10.176-7.776c13.024-10.016 20.64-25.504 20.64-41.92V96a80 80 0 0 0-80-80z m-592 32h592a48 48 0 0 1 48 48v304.096a20.832 20.832 0 0 1-8.128 16.512l-10.176 7.808c-2.176 1.696-4.512 3.2-6.976 4.48-35.2 18.4-69.536 30.88-102.944 37.472l-12.064 2.176c-32.32 5.344-80.512 9.792-144.288 13.312l-26.432 1.376L154.656 483.2V96a48 48 0 0 1 48-48z" fill="#19017a" />
    <path d="M927.68 329.824l16.992-21.568c4-5.024 7.2-8.992 10.4-12.8l6.784-7.904a16 16 0 0 1 23.936 21.28l-8.448 9.888-24.608 31.04c-12.064 15.168-22.144 26.912-33.28 38.464-78.656 81.312-193.12 124.896-392.704 126.912L512 515.2H32a16 16 0 0 1-2.88-31.744L32 483.2h480c200.512 0 310.336-40.576 384.448-117.216 10.336-10.72 19.776-21.728 31.264-36.16zM698.656 176.544a16 16 0 0 1 2.88 31.744l-2.88 0.256h-400a16 16 0 0 1-2.88-31.744l2.88-0.256h400z" fill="#19017a" />
    <path d="M698.656 309.888a16 16 0 0 1 2.88 31.744l-2.88 0.256h-400a16 16 0 0 1-2.88-31.744l2.88-0.256h400z" fill="#19017a" />
</svg>